<?xml version="1.0" standalone="no"?>
<!DOCTYPE svg PUBLIC "-//W3C//DTD SVG 20010904//EN"
 "http://www.w3.org/TR/2001/REC-SVG-20010904/DTD/svg10.dtd">
<svg version="1.0" xmlns="http://www.w3.org/2000/svg"
 width="1000.000000pt" height="1000.000000pt" viewBox="0 0 1000.000000 1000.000000"
 preserveAspectRatio="xMidYMid meet">
<metadata>
Created by potrace 1.16, written by Peter Selinger 2001-2019
</metadata>
<g transform="translate(0.000000,1000.000000) scale(0.100000,-0.100000)"
fill="#000000" stroke="none">
<path d="M5783 7864 c-136 -18 -293 -72 -398 -137 -94 -57 -136 -86 -172 -116
-24 -20 -70 -58 -104 -86 -33 -27 -129 -116 -212 -196 -84 -81 -158 -148 -164
-150 -18 -6 -463 -451 -463 -463 0 -19 -244 -256 -263 -256 -9 0 -17 -3 -17
-7 0 -14 -53 -33 -90 -33 -50 0 -60 14 -60 87 0 52 3 65 20 75 11 7 20 20 20
28 0 8 13 28 30 43 16 16 30 35 30 43 0 8 7 14 15 14 16 0 84 69 85 85 0 6 41
51 90 100 50 49 90 95 90 101 0 7 14 24 30 37 17 14 30 32 30 40 0 8 9 22 20
32 11 10 20 24 20 32 0 7 5 13 10 13 6 0 10 7 10 15 0 8 9 30 20 50 11 20 20
42 20 50 0 9 4 23 9 33 32 62 36 115 14 232 l-9 45 -14 -30 c-8 -16 -28 -36
-43 -45 -16 -8 -47 -33 -71 -55 -23 -22 -89 -85 -146 -139 -58 -55 -236 -228
-396 -385 -264 -260 -383 -372 -436 -410 -27 -18 -38 -52 -25 -76 5 -11 78
-88 161 -170 83 -83 210 -212 282 -288 142 -149 165 -162 201 -111 59 84 159
190 516 549 220 220 568 570 773 778 250 252 384 381 404 387 22 6 903 16
1017 11 20 -1 150 -119 303 -276 103 -105 684 -687 764 -765 42 -41 79 -85 82
-97 8 -28 -9 -57 -59 -101 -59 -53 -257 -243 -281 -270 -12 -13 -55 -56 -96
-95 -104 -99 -325 -323 -515 -521 l-160 -166 -310 0 c-170 0 -404 -5 -519 -10
-217 -11 -236 -9 -236 30 0 9 28 42 63 74 173 159 291 273 521 501 283 281
413 406 470 450 72 57 80 75 53 120 -7 11 -110 120 -230 242 -121 122 -239
249 -264 282 -65 88 -71 87 -212 -61 -64 -67 -305 -312 -536 -545 -231 -233
-562 -567 -735 -742 -173 -175 -325 -323 -337 -330 -15 -8 -172 -11 -545 -11
l-523 0 -375 377 c-206 207 -455 453 -553 546 -174 166 -215 215 -200 240 4 7
43 46 87 87 45 41 142 134 216 206 74 73 162 156 195 185 32 29 77 73 98 97
21 25 78 86 125 136 48 50 137 142 197 205 135 142 190 189 235 201 19 6 157
10 305 10 269 1 604 13 670 26 34 6 49 24 21 24 -7 0 -20 7 -27 16 -13 16 -59
48 -118 85 -42 25 -181 71 -246 80 -174 25 -389 20 -510 -13 -101 -27 -172
-53 -227 -84 -33 -19 -62 -34 -63 -34 -8 0 -93 -61 -105 -75 -7 -8 -17 -15
-22 -15 -18 0 -122 -98 -376 -350 -389 -387 -456 -472 -528 -675 -44 -126 -8
-301 96 -460 11 -16 23 -37 27 -46 5 -8 19 -31 33 -49 38 -50 473 -490 485
-490 6 0 53 -43 105 -95 52 -52 99 -95 105 -95 6 0 31 -20 55 -45 24 -25 49
-45 56 -45 6 0 32 -22 58 -50 26 -27 52 -50 59 -50 21 0 97 -84 97 -106 0 -33
-69 -84 -115 -84 -14 0 -25 -4 -25 -8 0 -5 -16 -14 -35 -22 -20 -8 -43 -22
-52 -32 -9 -10 -21 -18 -28 -18 -7 0 -20 -9 -30 -20 -10 -11 -23 -20 -30 -20
-6 0 -29 -18 -50 -40 -21 -22 -44 -40 -50 -40 -6 0 -27 -16 -45 -35 -35 -37
-82 -65 -107 -65 -7 0 -13 -4 -13 -10 0 -5 -11 -10 -25 -10 -14 0 -25 5 -25
10 0 6 -9 10 -20 10 -11 0 -20 4 -20 9 0 5 -15 16 -34 25 -18 8 -39 22 -46 31
-7 8 -18 15 -25 15 -7 0 -19 7 -26 16 -7 9 -22 20 -34 25 -11 5 -27 13 -35 18
-31 20 -84 41 -101 41 -10 0 -21 5 -24 10 -8 13 -212 13 -220 0 -3 -5 -14 -10
-24 -10 -63 0 -224 -132 -260 -215 -50 -113 -67 -202 -55 -298 11 -91 11 -344
0 -459 -5 -52 -5 -88 0 -88 5 0 9 13 10 28 1 17 18 52 42 84 23 30 42 59 42
65 0 5 11 20 25 33 l25 24 30 -22 c16 -12 33 -22 37 -22 5 0 24 -10 43 -23 76
-51 203 -61 258 -20 20 15 28 30 30 61 3 36 -1 43 -31 66 -18 14 -54 35 -80
46 -25 11 -49 25 -52 30 -3 5 -23 14 -44 20 -20 5 -68 34 -107 63 -134 103
-167 236 -92 381 26 52 145 146 186 146 9 1 28 7 42 15 16 9 54 14 105 14 51
0 89 -5 105 -14 14 -8 37 -14 53 -15 23 0 83 -21 137 -49 24 -13 24 -67 1
-100 -12 -16 -21 -33 -21 -37 0 -16 -53 -84 -66 -84 -14 0 -69 22 -116 46 -35
18 -122 18 -158 -1 -53 -27 -65 -77 -27 -112 25 -24 151 -93 169 -93 7 0 40
-16 73 -37 153 -93 189 -145 189 -277 0 -120 -18 -171 -79 -231 -79 -76 -162
-108 -298 -113 -133 -5 -234 20 -319 79 -14 11 -35 19 -45 19 -10 0 -24 5 -31
12 -17 17 -26 2 -11 -17 49 -59 106 -117 128 -129 69 -38 120 -60 156 -69 58
-14 245 -20 269 -8 12 5 35 12 51 16 36 8 133 53 157 73 23 19 149 82 165 82
7 0 13 5 13 10 0 6 11 10 25 10 14 0 25 -4 25 -10 0 -5 11 -10 23 -10 28 0 80
-24 97 -45 7 -8 18 -15 24 -15 7 0 25 -13 41 -30 16 -16 35 -30 42 -30 7 0 13
-4 13 -10 0 -5 9 -10 19 -10 11 0 23 -5 26 -10 3 -6 16 -10 29 -10 12 0 28 -6
35 -12 11 -10 14 -10 18 0 3 6 18 12 34 12 16 0 29 5 29 10 0 6 7 10 15 10 8
0 31 18 51 40 20 22 42 40 48 40 6 0 34 23 61 50 27 28 54 50 60 50 6 0 24 14
40 30 16 17 34 30 40 30 7 0 20 9 30 20 10 11 23 20 30 20 7 0 20 9 30 20 10
11 23 20 30 20 7 0 20 9 30 20 10 11 26 20 37 20 10 0 18 5 18 10 0 6 9 10 20
10 11 0 20 5 20 10 0 6 20 10 45 10 25 0 45 -4 45 -10 0 -5 7 -10 16 -10 18 0
104 -78 104 -95 0 -6 14 -24 30 -40 17 -16 30 -34 30 -40 0 -6 14 -24 30 -40
17 -16 30 -34 30 -40 0 -14 232 -245 246 -245 6 0 19 -9 29 -20 10 -11 23 -20
30 -20 7 0 20 -9 30 -20 11 -12 31 -20 50 -20 18 0 38 -7 45 -15 10 -12 9 -15
-4 -15 -14 0 -16 -11 -11 -92 3 -50 7 -94 10 -96 3 -3 5 33 5 81 0 77 2 86 20
92 11 3 20 11 20 16 0 5 16 9 36 9 21 0 33 4 29 10 -4 6 33 10 103 10 106 0
160 12 178 41 3 6 14 13 24 17 25 9 170 151 170 166 0 7 23 34 50 61 28 27 50
54 50 60 0 6 23 33 50 60 28 27 50 54 50 60 0 13 76 85 105 101 14 7 26 7 43
-2 33 -17 82 -65 82 -82 0 -7 14 -25 30 -39 17 -13 30 -30 30 -37 0 -7 14 -25
30 -41 17 -16 30 -34 30 -40 0 -18 185 -196 222 -213 18 -9 36 -21 40 -27 8
-11 108 82 108 100 0 6 27 37 60 69 33 32 60 64 60 71 0 7 18 29 40 49 22 20
40 42 40 49 0 20 21 37 46 37 13 0 26 4 29 10 15 24 53 8 103 -43 29 -29 52
-58 52 -65 0 -8 14 -25 30 -39 17 -13 30 -31 30 -40 0 -8 14 -26 30 -40 17
-13 30 -33 30 -44 0 -10 5 -19 10 -19 6 0 10 -13 10 -30 0 -16 5 -30 10 -30
16 0 12 -31 -12 -82 -15 -30 -30 -48 -40 -48 -25 0 -22 -27 3 -33 11 -3 23
-15 26 -26 5 -19 7 -18 27 12 21 30 25 32 82 31 35 0 75 -8 94 -18 34 -16 35
-16 52 6 10 13 18 28 18 34 0 21 70 35 70 15 0 -5 14 -19 30 -31 27 -19 33
-20 60 -8 33 14 40 38 12 38 -26 0 -62 42 -62 72 0 39 28 86 62 103 17 8 57
15 88 15 49 0 60 -4 85 -30 16 -16 34 -30 40 -30 14 0 50 -38 58 -62 4 -10 13
-18 20 -18 8 0 22 -9 32 -20 24 -26 83 -26 130 0 20 11 46 20 58 20 12 0 28 9
35 20 7 11 23 20 36 20 14 0 28 4 31 10 3 5 16 10 29 10 12 0 27 5 33 11 6 6
70 12 149 14 158 5 242 14 250 26 3 5 13 9 23 9 21 0 78 27 86 40 3 5 22 17
41 26 19 9 33 22 31 28 -4 12 -91 23 -194 25 -63 1 -92 17 -112 61 -7 18 -179
281 -192 294 -9 10 -49 -20 -49 -36 0 -4 -18 -34 -40 -65 -23 -32 -69 -101
-103 -153 l-63 -95 -147 -3 c-126 -2 -148 0 -153 13 -4 9 1 24 10 34 9 10 16
22 16 27 0 6 33 51 73 102 39 50 95 123 122 163 28 39 66 90 85 115 19 24 45
61 57 82 l22 39 -31 59 c-17 32 -39 68 -49 79 -11 11 -30 34 -42 52 -72 105
-143 202 -167 228 -69 76 -48 90 123 81 147 -8 151 -10 195 -86 14 -25 36 -58
49 -73 13 -16 23 -34 23 -41 0 -6 13 -27 30 -46 l30 -35 20 25 c11 14 30 41
41 60 34 60 60 104 88 145 24 36 32 41 81 47 30 3 101 6 158 7 85 1 104 -2
109 -15 6 -15 -29 -72 -53 -87 -7 -4 -31 -35 -54 -68 -23 -34 -51 -71 -61 -83
-20 -22 -56 -69 -99 -131 -14 -20 -35 -49 -47 -65 -27 -33 -30 -72 -7 -91 9
-7 34 -38 55 -69 45 -63 69 -95 154 -205 33 -43 67 -87 75 -99 8 -11 30 -37
48 -56 17 -19 32 -40 32 -47 0 -23 25 -14 37 15 29 65 26 183 -8 422 -6 41
-12 153 -14 249 -3 135 -8 181 -21 209 -9 19 -19 52 -21 74 -4 27 -14 44 -33
58 -16 11 -32 20 -36 20 -4 0 -19 11 -33 24 -34 31 -117 76 -141 76 -10 0 -22
5 -25 10 -8 14 -492 14 -500 0 -3 -6 -18 -10 -33 -10 -15 -1 -45 -12 -67 -25
-22 -13 -56 -32 -75 -41 -19 -10 -43 -24 -52 -32 -44 -37 -112 -62 -170 -62
-32 0 -58 4 -58 10 0 6 -8 10 -18 10 -10 0 -31 14 -47 30 -16 17 -34 30 -40
30 -13 0 -105 95 -123 127 -15 27 -16 63 -2 63 6 0 10 9 10 20 0 11 5 20 10
20 6 0 10 8 10 18 0 18 198 222 216 222 14 0 384 374 384 388 0 7 7 12 15 12
8 0 15 5 15 11 0 6 46 60 103 120 161 170 215 243 285 379 55 108 65 146 66
255 1 124 -23 192 -132 376 -46 78 -168 223 -292 348 -91 91 -321 301 -387
354 -27 20 -64 50 -83 65 -89 70 -332 212 -363 212 -5 0 -23 6 -40 14 -31 13
-82 28 -157 46 -131 32 -502 39 -687 14z m-155 -1993 c-23 -47 -46 -87 -50
-89 -5 -2 -8 -12 -8 -23 0 -10 -4 -19 -10 -19 -5 0 -10 -11 -10 -25 0 -23 -17
-63 -31 -75 -11 -9 -21 -73 -26 -176 -5 -100 -5 -101 32 -175 46 -93 60 -118
74 -132 6 -6 11 -21 11 -33 0 -13 5 -26 10 -29 14 -9 12 -101 -2 -128 -18 -32
-190 -207 -204 -207 -6 0 -17 -7 -24 -15 -21 -25 -71 -45 -114 -45 -39 0 -128
38 -211 90 -48 30 -128 70 -140 70 -6 0 -30 9 -53 20 -22 11 -52 20 -66 20
-14 0 -28 5 -31 10 -3 6 -21 10 -40 10 -19 0 -37 5 -40 10 -3 6 -26 10 -51 10
-24 0 -44 5 -44 10 0 6 -40 10 -99 10 -56 0 -103 -4 -106 -10 -3 -5 -19 -10
-36 -10 -16 0 -29 -4 -29 -10 0 -5 -12 -10 -28 -10 -16 0 -32 -8 -40 -20 -7
-11 -20 -20 -30 -20 -9 0 -23 -9 -30 -20 -7 -11 -18 -20 -25 -20 -7 0 -26 -13
-42 -30 -16 -16 -34 -30 -40 -30 -6 0 -20 -8 -31 -17 -28 -25 -61 -43 -79 -43
-8 0 -15 -4 -15 -10 0 -5 -20 -10 -45 -10 -25 0 -45 5 -45 10 0 6 -6 10 -13
10 -24 0 -72 28 -102 61 -17 17 -40 35 -53 40 -12 5 -27 20 -32 34 -5 14 -16
25 -23 25 -28 0 -82 82 -75 115 3 20 53 53 81 54 9 1 17 6 17 11 0 6 23 10 50
10 28 0 50 5 50 10 0 6 28 10 64 10 36 0 68 5 71 10 4 6 82 10 200 10 124 0
196 4 200 10 5 8 12 7 23 -2 12 -10 16 -10 19 0 3 6 18 12 34 12 16 0 29 5 29
10 0 6 9 10 20 10 11 0 20 5 20 10 0 6 9 10 20 10 11 0 20 5 20 10 0 6 9 10
19 10 10 0 21 7 24 15 3 8 25 23 49 34 24 10 54 31 67 45 14 14 30 26 36 26 6
0 24 14 40 30 16 17 34 30 40 30 6 0 24 14 40 30 16 17 34 30 40 30 6 0 29 18
50 40 21 22 44 40 50 40 6 0 24 14 40 30 16 17 34 30 40 30 6 0 29 18 50 40
21 22 44 40 50 40 6 0 24 14 40 30 16 17 34 30 40 30 6 0 29 18 50 40 21 22
44 40 50 40 6 0 24 14 40 30 16 17 36 30 44 30 9 0 22 9 29 20 7 11 19 20 27
20 8 0 29 16 47 35 18 20 62 50 98 68 l65 32 3 -34 c2 -25 -9 -58 -40 -120z
m-938 -1111 c19 -5 51 -13 71 -18 129 -33 280 -163 335 -289 36 -81 51 -229
34 -342 -14 -100 -32 -153 -66 -198 -13 -17 -24 -34 -24 -38 0 -22 -171 -165
-197 -165 -5 0 -26 -9 -46 -19 -53 -27 -169 -45 -244 -38 -68 7 -197 54 -245
90 -92 68 -184 188 -202 262 -30 123 -31 319 -3 395 36 98 113 207 179 256 49
35 145 84 165 84 10 0 36 7 58 15 46 16 134 19 185 5z m1538 -25 c17 -6 17
-191 0 -202 -7 -4 -57 -6 -110 -4 -157 4 -140 58 -137 -430 1 -231 0 -422 -4
-425 -3 -3 -55 -6 -117 -7 -84 0 -114 3 -125 14 -11 12 -12 78 -6 409 5 222 5
405 0 418 -9 23 -12 23 -124 20 -94 -2 -117 0 -125 12 -6 8 -9 55 -8 105 3 84
4 89 26 95 26 6 711 2 730 -5z m625 6 c19 -7 19 -25 18 -531 -1 -407 -4 -526
-13 -532 -7 -4 -66 -8 -130 -8 l-118 0 0 534 0 535 38 3 c75 6 187 6 205 -1z
m-3336 -22 c61 -23 148 -96 158 -133 4 -11 16 -41 27 -65 25 -56 22 -177 -5
-230 -9 -19 -17 -40 -17 -47 0 -18 -102 -119 -137 -137 -45 -23 -128 -37 -222
-37 -67 0 -92 -4 -101 -15 -10 -12 -11 -54 -5 -180 3 -90 4 -173 0 -184 -6
-20 -14 -21 -125 -21 -111 0 -120 1 -131 21 -6 12 -8 35 -5 52 4 17 6 246 6
508 0 262 3 479 7 483 3 3 116 6 249 6 224 0 248 -2 301 -21z"/>
<path d="M4527 4510 c-65 -25 -116 -73 -152 -144 -28 -55 -30 -68 -29 -160 0
-88 3 -107 26 -151 14 -28 39 -63 54 -79 57 -57 70 -61 184 -61 l106 1 46 37
c31 25 56 59 77 103 28 58 31 75 31 154 0 75 -4 99 -26 145 -40 90 -85 131
-164 155 -80 24 -90 24 -153 0z"/>
<path d="M3222 4532 c-9 -6 -12 -40 -10 -133 l3 -124 28 -9 c22 -8 43 -5 98
14 93 31 111 54 107 133 -3 55 -6 62 -38 88 -28 22 -49 29 -105 34 -38 3 -76
2 -83 -3z"/>
<path d="M6023 3443 c-7 -2 -13 -11 -13 -19 0 -11 4 -12 19 -4 11 5 32 10 48
11 l28 1 -25 8 c-30 9 -41 10 -57 3z"/>
<path d="M5910 3405 c-12 -14 -57 -38 -88 -47 -9 -2 -6 -12 12 -31 19 -20 26
-40 27 -70 1 -61 5 -86 14 -94 4 -5 5 8 3 27 -11 79 40 160 101 160 32 0 39
13 21 40 -8 12 -10 13 -10 1 0 -10 -7 -8 -23 7 -27 26 -40 27 -57 7z"/>
<path d="M6126 3363 c-9 -9 -7 -33 3 -33 12 0 22 28 12 34 -5 3 -11 3 -15 -1z"/>
<path d="M4326 3345 c4 -8 12 -15 20 -15 8 0 14 7 14 15 0 8 -9 15 -20 15 -13
0 -18 -5 -14 -15z"/>
<path d="M4380 3338 c-15 -24 -21 -148 -7 -148 4 0 7 25 7 55 0 42 5 60 20 75
11 11 20 25 20 30 0 18 -25 10 -40 -12z"/>
<path d="M4636 3346 c7 -19 48 -22 42 -3 -3 6 -14 13 -26 15 -16 3 -20 -1 -16
-12z"/>
<path d="M4750 3344 c0 -14 3 -14 15 -4 19 16 19 20 0 20 -8 0 -15 -7 -15 -16z"/>
<path d="M4828 3353 c6 -2 18 -2 25 0 6 3 1 5 -13 5 -14 0 -19 -2 -12 -5z"/>
<path d="M4933 3345 c0 -8 8 -15 18 -15 12 0 16 5 13 15 -4 8 -12 15 -18 15
-7 0 -13 -7 -13 -15z"/>
<path d="M6380 3335 l-23 -25 26 13 c15 6 27 18 27 25 0 17 -3 16 -30 -13z"/>
<path d="M7030 3352 c0 -5 9 -17 20 -27 16 -15 20 -31 20 -82 0 -79 16 -76 19
4 2 48 7 62 28 82 17 16 22 26 14 29 -6 2 -20 -5 -30 -16 -17 -21 -18 -21 -31
-1 -15 19 -40 26 -40 11z"/>
<path d="M7166 3346 c3 -8 12 -17 20 -20 10 -4 14 -25 15 -78 2 -119 16 -148
18 -36 0 53 5 108 11 122 10 27 2 34 -17 15 -8 -8 -13 -8 -17 0 -10 16 -36 13
-30 -3z"/>
<path d="M7386 3344 c-8 -21 -3 -26 17 -18 24 9 30 34 8 34 -10 0 -22 -7 -25
-16z"/>
<path d="M3052 3330 c0 -14 2 -19 5 -12 2 6 2 18 0 25 -3 6 -5 1 -5 -13z"/>
<path d="M6180 3340 c0 -5 9 -14 20 -20 26 -14 26 1 0 18 -11 7 -20 8 -20 2z"/>
<path d="M5006 3325 c-10 -7 -16 -18 -15 -24 2 -5 17 1 32 15 30 25 15 33 -17
9z"/>
<path d="M2927 3313 c7 -2 21 -2 30 0 10 3 5 5 -12 5 -16 0 -24 -2 -18 -5z"/>
<path d="M4733 3270 c0 -30 2 -43 4 -27 2 15 2 39 0 55 -2 15 -4 2 -4 -28z"/>
<path d="M6226 3303 c-4 -9 -2 -21 4 -27 7 -7 10 -7 10 1 0 6 3 18 6 27 3 9 2
16 -4 16 -5 0 -13 -8 -16 -17z"/>
<path d="M3051 3266 c-1 -11 2 -17 5 -13 3 3 4 12 1 19 -3 8 -6 5 -6 -6z"/>
<path d="M6341 3256 c-1 -11 2 -17 5 -13 3 3 4 12 1 19 -3 8 -6 5 -6 -6z"/>
<path d="M6800 3206 c0 -70 7 -99 21 -90 10 6 12 114 3 138 -13 35 -24 13 -24
-48z"/>
<path d="M6932 3259 c-19 -7 -23 -15 -20 -41 2 -27 8 -34 29 -36 24 -3 26 0
27 37 2 46 -4 52 -36 40z"/>
<path d="M5977 3252 c-28 -6 -19 -66 11 -70 19 -3 22 1 22 32 0 38 -6 45 -33
38z"/>
<path d="M6115 3228 c3 -18 9 -46 12 -62 5 -25 7 -27 15 -12 7 12 6 32 -3 62
-15 51 -34 60 -24 12z"/>
<path d="M6683 3253 c-16 -6 -16 -35 1 -98 l13 -50 5 65 c6 69 1 90 -19 83z"/>
<path d="M3170 3221 c0 -16 6 -31 15 -34 18 -8 23 2 16 33 -8 36 -31 37 -31 1z
m16 -18 c-3 -4 -6 2 -5 13 0 11 3 14 6 6 3 -7 2 -16 -1 -19z"/>
<path d="M4112 3220 c0 -19 2 -27 5 -17 2 9 2 25 0 35 -3 9 -5 1 -5 -18z"/>
<path d="M4611 3236 c-1 -11 2 -17 5 -13 3 3 4 12 1 19 -3 8 -6 5 -6 -6z"/>
<path d="M4870 3204 c0 -27 4 -43 10 -39 13 8 13 85 0 85 -5 0 -10 -21 -10
-46z"/>
<path d="M5225 3237 c-4 -10 -3 -23 3 -29 14 -14 21 3 12 27 -7 19 -8 19 -15
2z"/>
<path d="M7307 3241 c-2 -4 0 -26 4 -51 l6 -45 1 43 c2 52 29 60 35 10 3 -30
4 -29 5 8 2 37 0 40 -24 40 -14 0 -26 -2 -27 -5z"/>
<path d="M3991 3196 c-1 -11 2 -17 5 -13 3 3 4 12 1 19 -3 8 -6 5 -6 -6z"/>
<path d="M5651 3196 c-1 -11 2 -17 5 -13 3 3 4 12 1 19 -3 8 -6 5 -6 -6z"/>
<path d="M5520 3196 c0 -3 5 -8 10 -11 6 -3 10 -1 10 4 0 6 -4 11 -10 11 -5 0
-10 -2 -10 -4z"/>
<path d="M6317 3186 c-9 -24 -9 -28 3 -21 6 3 10 -1 10 -9 0 -9 5 -16 10 -16
14 0 12 23 -3 44 -13 18 -14 18 -20 2z"/>
<path d="M6563 3165 c-1 -22 1 -32 4 -23 2 10 2 28 0 40 -2 13 -4 5 -4 -17z"/>
<path d="M6285 3141 c-3 -5 -1 -12 5 -16 5 -3 10 1 10 9 0 18 -6 21 -15 7z"/>
<path d="M6023 3093 c15 -2 37 -2 50 0 12 2 0 4 -28 4 -27 0 -38 -2 -22 -4z"/>
<path d="M6213 3093 c9 -2 25 -2 35 0 9 3 1 5 -18 5 -19 0 -27 -2 -17 -5z"/>
<path d="M6443 3093 c15 -2 37 -2 50 0 12 2 0 4 -28 4 -27 0 -38 -2 -22 -4z"/>
<path d="M6597 3093 c7 -2 21 -2 30 0 10 3 5 5 -12 5 -16 0 -24 -2 -18 -5z"/>
<path d="M6743 3094 c3 -3 12 -4 19 -1 8 3 5 6 -6 6 -11 1 -17 -2 -13 -5z"/>
<path d="M7133 3094 c3 -3 12 -4 19 -1 8 3 5 6 -6 6 -11 1 -17 -2 -13 -5z"/>
</g>
</svg>
